<svg width="465" height="333" viewBox="0 0 465 333" fill="none" xmlns="http://www.w3.org/2000/svg">
<g opacity="0.2">
<path d="M181.805 130.382H147.954C138.273 130.382 130.425 138.23 130.425 147.911V181.762C130.425 191.443 138.273 199.291 147.954 199.291H181.805C191.487 199.291 199.335 191.443 199.335 181.762V147.911C199.335 138.23 191.487 130.382 181.805 130.382Z" fill="url(#paint0_linear_126_610)"/>
<path d="M282.991 130.382H249.14C239.459 130.382 231.611 138.23 231.611 147.911V181.762C231.611 191.443 239.459 199.291 249.14 199.291H282.991C292.673 199.291 300.521 191.443 300.521 181.762V147.911C300.521 138.23 292.673 130.382 282.991 130.382Z" fill="url(#paint1_linear_126_610)"/>
<path d="M383.602 130.382H349.75C340.069 130.382 332.221 138.23 332.221 147.911V181.762C332.221 191.443 340.069 199.291 349.75 199.291H383.602C393.283 199.291 401.131 191.443 401.131 181.762V147.911C401.131 138.23 393.283 130.382 383.602 130.382Z" fill="url(#paint2_linear_126_610)"/>
<path d="M181.122 231.279H147.271C137.59 231.279 129.742 239.127 129.742 248.808V282.659C129.742 292.34 137.59 300.189 147.271 300.189H181.122C190.804 300.189 198.652 292.34 198.652 282.659V248.808C198.652 239.127 190.804 231.279 181.122 231.279Z" fill="url(#paint3_linear_126_610)"/>
<path d="M282.283 231.279H248.432C238.75 231.279 230.902 239.127 230.902 248.808V282.659C230.902 292.34 238.75 300.189 248.432 300.189H282.283C291.964 300.189 299.812 292.34 299.812 282.659V248.808C299.812 239.127 291.964 231.279 282.283 231.279Z" fill="url(#paint4_linear_126_610)"/>
<path d="M382.918 231.279H349.067C339.386 231.279 331.538 239.127 331.538 248.808V282.659C331.538 292.34 339.386 300.189 349.067 300.189H382.918C392.599 300.189 400.448 292.34 400.448 282.659V248.808C400.448 239.127 392.599 231.279 382.918 231.279Z" fill="url(#paint5_linear_126_610)"/>
<path d="M181.122 331.629H147.271C137.59 331.629 129.742 339.477 129.742 349.158V383.009C129.742 392.691 137.59 400.539 147.271 400.539H181.122C190.804 400.539 198.652 392.691 198.652 383.009V349.158C198.652 339.477 190.804 331.629 181.122 331.629Z" fill="url(#paint6_linear_126_610)"/>
<path d="M282.283 331.629H248.432C238.75 331.629 230.902 339.477 230.902 349.158V383.009C230.902 392.691 238.75 400.539 248.432 400.539H282.283C291.964 400.539 299.812 392.691 299.812 383.009V349.158C299.812 339.477 291.964 331.629 282.283 331.629Z" fill="url(#paint7_linear_126_610)"/>
<path d="M382.918 331.629H349.067C339.386 331.629 331.538 339.477 331.538 349.158V383.009C331.538 392.691 339.386 400.539 349.067 400.539H382.918C392.599 400.539 400.448 392.691 400.448 383.009V349.158C400.448 339.477 392.599 331.629 382.918 331.629Z" fill="url(#paint8_linear_126_610)"/>
<path d="M462.876 142.534H444.507C437.261 142.534 431.387 148.408 431.387 155.655V174.024C431.387 181.27 437.261 187.144 444.507 187.144H462.876C470.123 187.144 475.997 181.27 475.997 174.024V155.655C475.997 148.408 470.123 142.534 462.876 142.534Z" fill="url(#paint9_linear_126_610)"/>
<path d="M462.876 243.431H444.507C437.261 243.431 431.387 249.306 431.387 256.552V274.921C431.387 282.167 437.261 288.042 444.507 288.042H462.876C470.123 288.042 475.997 282.167 475.997 274.921V256.552C475.997 249.306 470.123 243.431 462.876 243.431Z" fill="url(#paint10_linear_126_610)"/>
<path d="M462.876 343.778H444.507C437.261 343.778 431.387 349.652 431.387 356.898V375.267C431.387 382.514 437.261 388.388 444.507 388.388H462.876C470.123 388.388 475.997 382.514 475.997 375.267V356.898C475.997 349.652 470.123 343.778 462.876 343.778Z" fill="url(#paint11_linear_126_610)"/>
<path d="M525.41 354.8H512.866C510.098 354.8 507.854 357.044 507.854 359.812V372.355C507.854 375.123 510.098 377.367 512.866 377.367H525.41C528.178 377.367 530.422 375.123 530.422 372.355V359.812C530.422 357.044 528.178 354.8 525.41 354.8Z" fill="url(#paint12_linear_126_610)"/>
<path d="M525.41 254.158H512.866C510.098 254.158 507.854 256.402 507.854 259.17V271.714C507.854 274.482 510.098 276.726 512.866 276.726H525.41C528.178 276.726 530.422 274.482 530.422 271.714V259.17C530.422 256.402 528.178 254.158 525.41 254.158Z" fill="url(#paint13_linear_126_610)"/>
<path d="M525.41 153.529H512.866C510.098 153.529 507.854 155.773 507.854 158.541V171.085C507.854 173.853 510.098 176.097 512.866 176.097H525.41C528.178 176.097 530.422 173.853 530.422 171.085V158.541C530.422 155.773 528.178 153.529 525.41 153.529Z" fill="url(#paint14_linear_126_610)"/>
<path d="M17.9798 354.8H5.43642C2.66831 354.8 0.424316 357.044 0.424316 359.812V372.355C0.424316 375.123 2.66831 377.367 5.43642 377.367H17.9798C20.7479 377.367 22.9919 375.123 22.9919 372.355V359.812C22.9919 357.044 20.7479 354.8 17.9798 354.8Z" fill="url(#paint15_linear_126_610)"/>
<path d="M83.4264 442.446H70.883C68.1149 442.446 65.8709 444.69 65.8709 447.458V460.002C65.8709 462.77 68.1149 465.014 70.883 465.014H83.4264C86.1945 465.014 88.4385 462.77 88.4385 460.002V447.458C88.4385 444.69 86.1945 442.446 83.4264 442.446Z" fill="url(#paint16_linear_126_610)"/>
<path d="M171.151 507.893H158.608C155.84 507.893 153.596 510.137 153.596 512.905V525.449C153.596 528.217 155.84 530.461 158.608 530.461H171.151C173.92 530.461 176.164 528.217 176.164 525.449V512.905C176.164 510.137 173.92 507.893 171.151 507.893Z" fill="url(#paint17_linear_126_610)"/>
<path d="M271.76 507.893H259.217C256.449 507.893 254.205 510.137 254.205 512.905V525.449C254.205 528.217 256.449 530.461 259.217 530.461H271.76C274.528 530.461 276.772 528.217 276.772 525.449V512.905C276.772 510.137 274.528 507.893 271.76 507.893Z" fill="url(#paint18_linear_126_610)"/>
<path d="M372.107 507.893H359.563C356.795 507.893 354.551 510.137 354.551 512.905V525.449C354.551 528.217 356.795 530.461 359.563 530.461H372.107C374.875 530.461 377.119 528.217 377.119 525.449V512.905C377.119 510.137 374.875 507.893 372.107 507.893Z" fill="url(#paint19_linear_126_610)"/>
<path d="M170.863 0.539551H158.319C155.551 0.539551 153.307 2.78355 153.307 5.55166V18.095C153.307 20.8632 155.551 23.1072 158.319 23.1072H170.863C173.631 23.1072 175.875 20.8632 175.875 18.095V5.55166C175.875 2.78355 173.631 0.539551 170.863 0.539551Z" fill="url(#paint20_linear_126_610)"/>
<path d="M271.471 0.539551H258.927C256.159 0.539551 253.915 2.78355 253.915 5.55166V18.095C253.915 20.8632 256.159 23.1072 258.927 23.1072H271.471C274.239 23.1072 276.483 20.8632 276.483 18.095V5.55166C276.483 2.78355 274.239 0.539551 271.471 0.539551Z" fill="url(#paint21_linear_126_610)"/>
<path d="M371.845 0.539551H359.302C356.534 0.539551 354.29 2.78355 354.29 5.55166V18.095C354.29 20.8632 356.534 23.1072 359.302 23.1072H371.845C374.613 23.1072 376.858 20.8632 376.858 18.095V5.55166C376.858 2.78355 374.613 0.539551 371.845 0.539551Z" fill="url(#paint22_linear_126_610)"/>
<path d="M17.9798 254.158H5.43642C2.66831 254.158 0.424316 256.402 0.424316 259.17V271.714C0.424316 274.482 2.66831 276.726 5.43642 276.726H17.9798C20.7479 276.726 22.9919 274.482 22.9919 271.714V259.17C22.9919 256.402 20.7479 254.158 17.9798 254.158Z" fill="url(#paint23_linear_126_610)"/>
<path d="M83.4264 65.9863H70.883C68.1149 65.9863 65.8709 68.2303 65.8709 70.9984V83.5418C65.8709 86.3099 68.1149 88.5539 70.883 88.5539H83.4264C86.1945 88.5539 88.4385 86.3099 88.4385 83.5418V70.9984C88.4385 68.2303 86.1945 65.9863 83.4264 65.9863Z" fill="url(#paint24_linear_126_610)"/>
<path d="M459.964 65.9863H447.42C444.652 65.9863 442.408 68.2303 442.408 70.9984V83.5418C442.408 86.3099 444.652 88.5539 447.42 88.5539H459.964C462.732 88.5539 464.976 86.3099 464.976 83.5418V70.9984C464.976 68.2303 462.732 65.9863 459.964 65.9863Z" fill="url(#paint25_linear_126_610)"/>
<path d="M461.458 442.446H448.915C446.147 442.446 443.903 444.69 443.903 447.458V460.002C443.903 462.77 446.147 465.014 448.915 465.014H461.458C464.227 465.014 466.471 462.77 466.471 460.002V447.458C466.471 444.69 464.227 442.446 461.458 442.446Z" fill="url(#paint26_linear_126_610)"/>
<path d="M17.9798 153.529H5.43642C2.66831 153.529 0.424316 155.773 0.424316 158.541V171.085C0.424316 173.853 2.66831 176.097 5.43642 176.097H17.9798C20.7479 176.097 22.9919 173.853 22.9919 171.085V158.541C22.9919 155.773 20.7479 153.529 17.9798 153.529Z" fill="url(#paint27_linear_126_610)"/>
<path d="M85.8138 142.793H67.4448C60.1985 142.793 54.3242 148.667 54.3242 155.914V174.283C54.3242 181.529 60.1985 187.403 67.4448 187.403H85.8138C93.0602 187.403 98.9345 181.529 98.9345 174.283V155.914C98.9345 148.667 93.0602 142.793 85.8138 142.793Z" fill="url(#paint28_linear_126_610)"/>
<path d="M85.8138 243.694H67.4448C60.1985 243.694 54.3242 249.569 54.3242 256.815V275.184C54.3242 282.43 60.1985 288.305 67.4448 288.305H85.8138C93.0602 288.305 98.9345 282.43 98.9345 275.184V256.815C98.9345 249.569 93.0602 243.694 85.8138 243.694Z" fill="url(#paint29_linear_126_610)"/>
<path d="M85.8138 344.044H67.4448C60.1985 344.044 54.3242 349.918 54.3242 357.165V375.534C54.3242 382.78 60.1985 388.654 67.4448 388.654H85.8138C93.0602 388.654 98.9345 382.78 98.9345 375.534V357.165C98.9345 349.918 93.0602 344.044 85.8138 344.044Z" fill="url(#paint30_linear_126_610)"/>
<path d="M142.022 68.0064V86.3753C142.022 93.6217 147.896 99.496 155.142 99.496H173.511C180.758 99.496 186.632 93.6217 186.632 86.3753V68.0064C186.632 60.76 180.758 54.8857 173.511 54.8857H155.142C147.896 54.8857 142.022 60.76 142.022 68.0064Z" fill="url(#paint31_linear_126_610)"/>
<path d="M242.922 68.0064V86.3753C242.922 93.6217 248.796 99.496 256.043 99.496H274.412C281.658 99.496 287.532 93.6217 287.532 86.3753V68.0064C287.532 60.76 281.658 54.8857 274.412 54.8857H256.043C248.796 54.8857 242.922 60.76 242.922 68.0064Z" fill="url(#paint32_linear_126_610)"/>
<path d="M343.268 68.0064V86.3753C343.268 93.6217 349.142 99.496 356.388 99.496H374.757C382.004 99.496 387.878 93.6217 387.878 86.3753V68.0064C387.878 60.76 382.004 54.8857 374.757 54.8857H356.388C349.142 54.8857 343.268 60.76 343.268 68.0064Z" fill="url(#paint33_linear_126_610)"/>
<path d="M142.286 445.07V463.439C142.286 470.685 148.16 476.559 155.406 476.559H173.775C181.022 476.559 186.896 470.685 186.896 463.439V445.07C186.896 437.823 181.022 431.949 173.775 431.949H155.406C148.16 431.949 142.286 437.823 142.286 445.07Z" fill="url(#paint34_linear_126_610)"/>
<path d="M243.183 445.07V463.439C243.183 470.685 249.057 476.559 256.304 476.559H274.673C281.919 476.559 287.793 470.685 287.793 463.439V445.07C287.793 437.823 281.919 431.949 274.673 431.949H256.304C249.057 431.949 243.183 437.823 243.183 445.07Z" fill="url(#paint35_linear_126_610)"/>
<path d="M343.531 445.07V463.439C343.531 470.685 349.406 476.559 356.652 476.559H375.021C382.267 476.559 388.142 470.685 388.142 463.439V445.07C388.142 437.823 382.267 431.949 375.021 431.949H356.652C349.406 431.949 343.531 437.823 343.531 445.07Z" fill="url(#paint36_linear_126_610)"/>
</g>
<defs>
<linearGradient id="paint0_linear_126_610" x1="0.424316" y1="0.539551" x2="530.422" y2="530.461" gradientUnits="userSpaceOnUse">
<stop stop-color="white" stop-opacity="0"/>
<stop offset="1" stop-color="white"/>
</linearGradient>
<linearGradient id="paint1_linear_126_610" x1="0.424316" y1="0.539551" x2="530.422" y2="530.461" gradientUnits="userSpaceOnUse">
<stop stop-color="white" stop-opacity="0"/>
<stop offset="1" stop-color="white"/>
</linearGradient>
<linearGradient id="paint2_linear_126_610" x1="0.424316" y1="0.539551" x2="530.422" y2="530.461" gradientUnits="userSpaceOnUse">
<stop stop-color="white" stop-opacity="0"/>
<stop offset="1" stop-color="white"/>
</linearGradient>
<linearGradient id="paint3_linear_126_610" x1="0.424316" y1="0.539551" x2="530.422" y2="530.461" gradientUnits="userSpaceOnUse">
<stop stop-color="white" stop-opacity="0"/>
<stop offset="1" stop-color="white"/>
</linearGradient>
<linearGradient id="paint4_linear_126_610" x1="0.424316" y1="0.539551" x2="530.422" y2="530.461" gradientUnits="userSpaceOnUse">
<stop stop-color="white" stop-opacity="0"/>
<stop offset="1" stop-color="white"/>
</linearGradient>
<linearGradient id="paint5_linear_126_610" x1="0.424316" y1="0.539551" x2="530.422" y2="530.461" gradientUnits="userSpaceOnUse">
<stop stop-color="white" stop-opacity="0"/>
<stop offset="1" stop-color="white"/>
</linearGradient>
<linearGradient id="paint6_linear_126_610" x1="0.424316" y1="0.539551" x2="530.422" y2="530.461" gradientUnits="userSpaceOnUse">
<stop stop-color="white" stop-opacity="0"/>
<stop offset="1" stop-color="white"/>
</linearGradient>
<linearGradient id="paint7_linear_126_610" x1="0.424316" y1="0.539551" x2="530.422" y2="530.461" gradientUnits="userSpaceOnUse">
<stop stop-color="white" stop-opacity="0"/>
<stop offset="1" stop-color="white"/>
</linearGradient>
<linearGradient id="paint8_linear_126_610" x1="0.424316" y1="0.539551" x2="530.422" y2="530.461" gradientUnits="userSpaceOnUse">
<stop stop-color="white" stop-opacity="0"/>
<stop offset="1" stop-color="white"/>
</linearGradient>
<linearGradient id="paint9_linear_126_610" x1="0.424316" y1="0.539551" x2="530.422" y2="530.461" gradientUnits="userSpaceOnUse">
<stop stop-color="white" stop-opacity="0"/>
<stop offset="1" stop-color="white"/>
</linearGradient>
<linearGradient id="paint10_linear_126_610" x1="0.424316" y1="0.539551" x2="530.422" y2="530.461" gradientUnits="userSpaceOnUse">
<stop stop-color="white" stop-opacity="0"/>
<stop offset="1" stop-color="white"/>
</linearGradient>
<linearGradient id="paint11_linear_126_610" x1="0.424316" y1="0.539551" x2="530.422" y2="530.461" gradientUnits="userSpaceOnUse">
<stop stop-color="white" stop-opacity="0"/>
<stop offset="1" stop-color="white"/>
</linearGradient>
<linearGradient id="paint12_linear_126_610" x1="0.424316" y1="0.539551" x2="530.422" y2="530.461" gradientUnits="userSpaceOnUse">
<stop stop-color="white" stop-opacity="0"/>
<stop offset="1" stop-color="white"/>
</linearGradient>
<linearGradient id="paint13_linear_126_610" x1="0.424316" y1="0.539551" x2="530.422" y2="530.461" gradientUnits="userSpaceOnUse">
<stop stop-color="white" stop-opacity="0"/>
<stop offset="1" stop-color="white"/>
</linearGradient>
<linearGradient id="paint14_linear_126_610" x1="0.424316" y1="0.539551" x2="530.422" y2="530.461" gradientUnits="userSpaceOnUse">
<stop stop-color="white" stop-opacity="0"/>
<stop offset="1" stop-color="white"/>
</linearGradient>
<linearGradient id="paint15_linear_126_610" x1="0.424316" y1="0.539551" x2="530.422" y2="530.461" gradientUnits="userSpaceOnUse">
<stop stop-color="white" stop-opacity="0"/>
<stop offset="1" stop-color="white"/>
</linearGradient>
<linearGradient id="paint16_linear_126_610" x1="0.424316" y1="0.539551" x2="530.422" y2="530.461" gradientUnits="userSpaceOnUse">
<stop stop-color="white" stop-opacity="0"/>
<stop offset="1" stop-color="white"/>
</linearGradient>
<linearGradient id="paint17_linear_126_610" x1="0.424316" y1="0.539551" x2="530.422" y2="530.461" gradientUnits="userSpaceOnUse">
<stop stop-color="white" stop-opacity="0"/>
<stop offset="1" stop-color="white"/>
</linearGradient>
<linearGradient id="paint18_linear_126_610" x1="0.424316" y1="0.539551" x2="530.422" y2="530.461" gradientUnits="userSpaceOnUse">
<stop stop-color="white" stop-opacity="0"/>
<stop offset="1" stop-color="white"/>
</linearGradient>
<linearGradient id="paint19_linear_126_610" x1="0.424316" y1="0.539551" x2="530.422" y2="530.461" gradientUnits="userSpaceOnUse">
<stop stop-color="white" stop-opacity="0"/>
<stop offset="1" stop-color="white"/>
</linearGradient>
<linearGradient id="paint20_linear_126_610" x1="0.424316" y1="0.539551" x2="530.422" y2="530.461" gradientUnits="userSpaceOnUse">
<stop stop-color="white" stop-opacity="0"/>
<stop offset="1" stop-color="white"/>
</linearGradient>
<linearGradient id="paint21_linear_126_610" x1="0.424316" y1="0.539551" x2="530.422" y2="530.461" gradientUnits="userSpaceOnUse">
<stop stop-color="white" stop-opacity="0"/>
<stop offset="1" stop-color="white"/>
</linearGradient>
<linearGradient id="paint22_linear_126_610" x1="0.424316" y1="0.539551" x2="530.422" y2="530.461" gradientUnits="userSpaceOnUse">
<stop stop-color="white" stop-opacity="0"/>
<stop offset="1" stop-color="white"/>
</linearGradient>
<linearGradient id="paint23_linear_126_610" x1="0.424316" y1="0.539551" x2="530.422" y2="530.461" gradientUnits="userSpaceOnUse">
<stop stop-color="white" stop-opacity="0"/>
<stop offset="1" stop-color="white"/>
</linearGradient>
<linearGradient id="paint24_linear_126_610" x1="0.424316" y1="0.539551" x2="530.422" y2="530.461" gradientUnits="userSpaceOnUse">
<stop stop-color="white" stop-opacity="0"/>
<stop offset="1" stop-color="white"/>
</linearGradient>
<linearGradient id="paint25_linear_126_610" x1="0.424316" y1="0.539551" x2="530.422" y2="530.461" gradientUnits="userSpaceOnUse">
<stop stop-color="white" stop-opacity="0"/>
<stop offset="1" stop-color="white"/>
</linearGradient>
<linearGradient id="paint26_linear_126_610" x1="0.424316" y1="0.539551" x2="530.422" y2="530.461" gradientUnits="userSpaceOnUse">
<stop stop-color="white" stop-opacity="0"/>
<stop offset="1" stop-color="white"/>
</linearGradient>
<linearGradient id="paint27_linear_126_610" x1="0.424316" y1="0.539551" x2="530.422" y2="530.461" gradientUnits="userSpaceOnUse">
<stop stop-color="white" stop-opacity="0"/>
<stop offset="1" stop-color="white"/>
</linearGradient>
<linearGradient id="paint28_linear_126_610" x1="0.424316" y1="0.539551" x2="530.422" y2="530.461" gradientUnits="userSpaceOnUse">
<stop stop-color="white" stop-opacity="0"/>
<stop offset="1" stop-color="white"/>
</linearGradient>
<linearGradient id="paint29_linear_126_610" x1="0.424316" y1="0.539551" x2="530.422" y2="530.461" gradientUnits="userSpaceOnUse">
<stop stop-color="white" stop-opacity="0"/>
<stop offset="1" stop-color="white"/>
</linearGradient>
<linearGradient id="paint30_linear_126_610" x1="0.424316" y1="0.539551" x2="530.422" y2="530.461" gradientUnits="userSpaceOnUse">
<stop stop-color="white" stop-opacity="0"/>
<stop offset="1" stop-color="white"/>
</linearGradient>
<linearGradient id="paint31_linear_126_610" x1="0.424316" y1="0.539551" x2="530.422" y2="530.461" gradientUnits="userSpaceOnUse">
<stop stop-color="white" stop-opacity="0"/>
<stop offset="1" stop-color="white"/>
</linearGradient>
<linearGradient id="paint32_linear_126_610" x1="0.424316" y1="0.539551" x2="530.422" y2="530.461" gradientUnits="userSpaceOnUse">
<stop stop-color="white" stop-opacity="0"/>
<stop offset="1" stop-color="white"/>
</linearGradient>
<linearGradient id="paint33_linear_126_610" x1="0.424316" y1="0.539551" x2="530.422" y2="530.461" gradientUnits="userSpaceOnUse">
<stop stop-color="white" stop-opacity="0"/>
<stop offset="1" stop-color="white"/>
</linearGradient>
<linearGradient id="paint34_linear_126_610" x1="0.424316" y1="0.539551" x2="530.422" y2="530.461" gradientUnits="userSpaceOnUse">
<stop stop-color="white" stop-opacity="0"/>
<stop offset="1" stop-color="white"/>
</linearGradient>
<linearGradient id="paint35_linear_126_610" x1="0.424316" y1="0.539551" x2="530.422" y2="530.461" gradientUnits="userSpaceOnUse">
<stop stop-color="white" stop-opacity="0"/>
<stop offset="1" stop-color="white"/>
</linearGradient>
<linearGradient id="paint36_linear_126_610" x1="0.424316" y1="0.539551" x2="530.422" y2="530.461" gradientUnits="userSpaceOnUse">
<stop stop-color="white" stop-opacity="0"/>
<stop offset="1" stop-color="white"/>
</linearGradient>
</defs>
</svg>
